<svg width="29" height="28" viewBox="0 0 29 28" fill="none" xmlns="http://www.w3.org/2000/svg">
<path d="M11.7783 27.1292C14.4839 26.0652 13.8911 23.1316 12.5231 21.2772C11.1703 19.3772 9.30066 18.07 7.41586 16.8084C6.07078 15.9611 4.86999 14.904 3.85906 13.6772C3.43346 13.1756 2.56706 12.2484 3.44866 12.066C4.34546 11.8836 5.89586 12.7652 6.68626 13.0996C8.06946 13.6772 9.43746 14.346 10.7143 15.1364L12.2495 12.5524C9.87826 10.9868 6.83826 9.60356 4.01106 9.19316C2.39986 8.94996 0.697462 9.28436 0.150262 11.0324C-0.336138 12.5372 0.439062 14.0572 1.32066 15.2428C3.40306 18.0244 6.64066 19.362 9.05746 21.7636C9.57426 22.2652 10.1975 22.858 10.5015 23.5572C10.8207 24.226 10.7447 24.2716 10.0303 24.2716C8.14546 24.2716 5.78946 22.7972 4.25426 21.8244L2.71906 24.4084C5.04466 25.8372 8.93586 28.0716 11.7783 27.1292ZM28.6351 3.41716C28.9695 3.08276 28.9695 2.53556 28.6351 2.21636L26.6591 0.240357C26.5002 0.0862133 26.2876 0 26.0663 0C25.8449 0 25.6323 0.0862133 25.4735 0.240357L23.9231 1.79076L27.0847 4.95236M13.6783 12.0356V15.1972H16.8399L26.1879 5.84916L23.0263 2.68756L13.6783 12.0356Z" fill="white"/>
</svg>
